<?xml version="1.0" encoding="utf-8"?>
<!-- Generator: Adobe Illustrator 16.0.0, SVG Export Plug-In . SVG Version: 6.00 Build 0)  -->
<!DOCTYPE svg PUBLIC "-//W3C//DTD SVG 1.1//EN" "http://www.w3.org/Graphics/SVG/1.1/DTD/svg11.dtd">
<svg version="1.1" id="Layer_1" xmlns="http://www.w3.org/2000/svg" xmlns:xlink="http://www.w3.org/1999/xlink" x="0px" y="0px"
	 width="800px" height="800px" viewBox="1845.185 0 800 800" enable-background="new 1845.185 0 800 800" xml:space="preserve">
<g id="Layer_x5F_1">
	<g id="_215942488">
		<path id="_215948032" fill-rule="evenodd" clip-rule="evenodd" d="M2058.199,18.318c-26.902,0-48.787,21.885-48.787,48.786
			v665.792c0,26.9,21.885,48.809,48.787,48.809h469.795c26.902,0,48.787-21.908,48.787-48.809V67.127
			c0-26.901-21.885-48.786-48.787-48.786L2058.199,18.318L2058.199,18.318z M2528.018,800h-469.818
			c-37.004,0-67.105-30.1-67.105-67.104V67.104C1991.094,30.1,2021.195,0,2058.199,0h469.795c37.004,0,67.104,30.1,67.104,67.104
			v665.769C2595.121,769.9,2564.998,800,2528.018,800L2528.018,800z"/>
		<path id="_215947768" fill-rule="evenodd" clip-rule="evenodd" d="M2438.684,140.306 M2300.84,221.103
			c-5.039,0-9.137-4.073-9.158-9.136c0-5.063,4.072-9.182,9.158-9.182l174.688-0.253c2.438,0,10.424-0.253,10.861-3.359
			c2.047-14.843-36.82-55.184-47.383-58.773l-271.291,0.391h-0.023c-5.063,0-9.137-4.096-9.16-9.136
			c0-5.085,4.074-9.182,9.137-9.182l271.936-0.392l0,0c12.129,0,32.609,21.379,38.615,27.914
			c9.895,10.839,26.51,31.527,26.533,48.28c0.023,5.292-2.094,22.529-29.203,22.552L2300.84,221.103L2300.84,221.103
			L2300.84,221.103z M2188.012,221.24c-24.324,0-43.057-18.226-48.926-47.566l-1.473-7.433c-0.988-4.971,2.209-9.78,7.158-10.793
			c4.971-0.989,9.779,2.232,10.793,7.18l1.494,7.433c3.176,15.878,12.98,32.838,30.953,32.838c0.021,0,0.021,0,0.045,0l39.719-0.069
			c0,0,0,0,0.023,0c5.039,0,9.137,4.073,9.16,9.136c0,5.063-4.074,9.182-9.137,9.182l-39.719,0.046
			C2188.057,221.24,2188.012,221.24,2188.012,221.24L2188.012,221.24z"/>
		<path id="_215948008" fill-rule="evenodd" clip-rule="evenodd" d="M2140.029,140.835L2140.029,140.835
			c-5.084,0-9.158-4.096-9.158-9.159l0.092-63.169c0-5.04,4.074-9.136,9.137-9.136l40.754-0.069c0,0,0,0,0.023,0
			c3.59,0,6.857,2.094,8.33,5.362l28.65,63.146c2.094,4.603,0.047,10.033-4.578,12.127c-4.604,2.094-10.035,0.046-12.129-4.58
			l-26.164-57.738l-25.705,0.046l-0.068,54.033C2149.189,136.739,2145.094,140.835,2140.029,140.835L2140.029,140.835z"/>
		<path id="_215947720" fill-rule="evenodd" clip-rule="evenodd" d="M2266.184,178.714l-76.102,95.156l45.059-10.31
			c12.379-2.831,22.137-9.159,29.801-19.331l49.568-65.585L2266.184,178.714L2266.184,178.714z M2166.494,297.803
			c-3.105,0-6.053-1.588-7.732-4.304c-2.094-3.291-1.84-7.571,0.6-10.585l95.246-119.089c1.75-2.163,4.35-3.429,7.135-3.429
			l71.178-0.092c0.021,0,0.021,0,0.021,0c3.477,0,6.652,1.979,8.217,5.086c1.541,3.129,1.219,6.834-0.898,9.619l-60.684,80.313
			c-10.4,13.738-23.588,22.299-40.34,26.119l-70.67,16.155C2167.852,297.733,2167.162,297.803,2166.494,297.803L2166.494,297.803z"
			/>
		<path id="_215948128" fill-rule="evenodd" clip-rule="evenodd" d="M2107.031,140.858c-3.936,0-7.295,3.337-7.295,7.295
			c0,1.933,0.736,3.728,2.117,5.086c1.357,1.357,3.176,2.117,5.086,2.14c0.021,0,0.021,0,0.021,0l60.592-0.092
			c3.936,0,7.271-3.337,7.271-7.272c0-1.933-0.736-3.728-2.117-5.109c-1.357-1.357-3.176-2.117-5.086-2.117c0,0,0,0-0.021,0
			C2167.621,140.789,2107.031,140.858,2107.031,140.858z M2106.984,173.674c-6.811,0-13.232-2.646-18.064-7.479
			c-4.832-4.833-7.479-11.253-7.479-18.065c0.023-14.061,11.482-25.521,25.566-25.567l60.592-0.069c0.021,0,0.021,0,0.045,0
			c6.789,0,13.209,2.646,18.043,7.479c4.832,4.833,7.479,11.253,7.479,18.064c0,14.061-11.461,25.521-25.545,25.567
			L2106.984,173.674C2107.008,173.674,2106.984,173.674,2106.984,173.674z"/>
		<path id="_215947600" fill-rule="evenodd" clip-rule="evenodd" d="M2387.365,181.291c-5.039,0-9.135-4.073-9.158-9.136
			c0-5.063,4.074-9.182,9.158-9.182l38.316-0.069c0.023,0,0.023,0,0.023,0c5.063,0,9.158,4.096,9.158,9.159
			c0.023,5.063-4.072,9.159-9.135,9.159L2387.365,181.291C2387.389,181.291,2387.389,181.291,2387.365,181.291z"/>
		<path id="_215947672" fill-rule="evenodd" clip-rule="evenodd" d="M2150.201,372.316c-35.461,0-64.318,28.857-64.318,64.342
			c0,35.485,28.857,64.32,64.318,64.32c35.463,0,64.32-28.857,64.32-64.32C2214.521,401.197,2185.641,372.316,2150.201,372.316
			L2150.201,372.316z M2150.201,519.273c-45.564,0-82.637-37.073-82.637-82.638c0-45.587,37.072-82.66,82.637-82.66
			s82.66,37.073,82.66,82.66C2232.838,482.2,2195.766,519.273,2150.201,519.273L2150.201,519.273z"/>
		<path id="_215947120" fill-rule="evenodd" clip-rule="evenodd" d="M2136.578,468.094c-2.348,0-4.693-0.897-6.467-2.67
			l-17.396-17.397c-3.566-3.566-3.566-9.365,0-12.956c3.566-3.566,9.365-3.566,12.955,0l10.908,10.908l38.131-38.131
			c3.568-3.567,9.367-3.567,12.957,0c3.566,3.566,3.566,9.365,0,12.955l-44.598,44.621
			C2141.273,467.196,2138.926,468.094,2136.578,468.094L2136.578,468.094z"/>
		<path id="_215947024" fill-rule="evenodd" clip-rule="evenodd" d="M2150.201,593.787c-35.461,0-64.318,28.857-64.318,64.318
			c0,35.463,28.857,64.32,64.318,64.32c35.463,0,64.32-28.857,64.32-64.32C2214.521,622.621,2185.641,593.787,2150.201,593.787
			L2150.201,593.787z M2150.201,740.743c-45.564,0-82.637-37.073-82.637-82.66c0-45.564,37.072-82.637,82.637-82.637
			s82.66,37.072,82.66,82.637C2232.838,703.647,2195.766,740.743,2150.201,740.743L2150.201,740.743z"/>
		<path id="_215947360" fill-rule="evenodd" clip-rule="evenodd" d="M2136.578,689.564L2136.578,689.564
			c-2.439,0-4.74-0.967-6.467-2.693l-17.396-17.396c-3.566-3.567-3.566-9.366,0-12.956c3.566-3.567,9.365-3.567,12.955,0
			l10.908,10.907l38.131-38.131c3.568-3.566,9.367-3.566,12.957,0c3.566,3.566,3.566,9.365,0,12.956l-44.598,44.598
			C2141.342,688.598,2139.018,689.564,2136.578,689.564L2136.578,689.564z"/>
		<path id="_215947168" fill-rule="evenodd" clip-rule="evenodd" d="M2509.492,392.291h-210.125c-5.063,0-9.158-4.096-9.158-9.159
			c0-5.063,4.096-9.159,9.158-9.159h210.125c5.063,0,9.16,4.097,9.16,9.159C2518.652,388.172,2514.555,392.291,2509.492,392.291
			L2509.492,392.291z"/>
		<path id="_215947552" fill-rule="evenodd" clip-rule="evenodd" d="M2509.492,499.298h-210.125c-5.063,0-9.158-4.073-9.158-9.158
			c0-5.063,4.096-9.159,9.158-9.159h210.125c5.063,0,9.16,4.096,9.16,9.159C2518.652,495.202,2514.555,499.298,2509.492,499.298
			L2509.492,499.298z"/>
		<path id="_215946880" fill-rule="evenodd" clip-rule="evenodd" d="M2468.117,445.795h-127.373c-5.063,0-9.16-4.097-9.16-9.159
			s4.098-9.159,9.16-9.159h127.373c5.063,0,9.158,4.097,9.158,9.159C2477.275,441.676,2473.18,445.795,2468.117,445.795z"/>
		<path id="_215947288" fill-rule="evenodd" clip-rule="evenodd" d="M2509.492,613.738h-210.125c-5.063,0-9.158-4.073-9.158-9.158
			c0-5.063,4.096-9.137,9.158-9.137h210.125c5.063,0,9.16,4.073,9.16,9.137C2518.652,609.643,2514.555,613.738,2509.492,613.738
			L2509.492,613.738z"/>
		<path id="_215946976" fill-rule="evenodd" clip-rule="evenodd" d="M2509.492,720.769h-210.125c-5.063,0-9.158-4.097-9.158-9.159
			s4.096-9.158,9.158-9.158h210.125c5.063,0,9.16,4.096,9.16,9.158S2514.555,720.769,2509.492,720.769L2509.492,720.769z"/>
		<path id="_215942944" fill-rule="evenodd" clip-rule="evenodd" d="M2468.117,667.266h-127.373c-5.063,0-9.16-4.097-9.16-9.16
			c0-5.063,4.098-9.158,9.16-9.158h127.373c5.063,0,9.158,4.096,9.158,9.158C2477.275,663.169,2473.18,667.266,2468.117,667.266z"/>
		<path id="_215942656" fill-rule="evenodd" clip-rule="evenodd" d="M2058.199,800h-95.801c-37.004,0-67.127-30.1-67.127-67.104
			V67.104C1895.271,30.1,1925.395,0,1962.398,0h95.801c5.063,0,9.158,4.096,9.158,9.159c0,5.063-4.096,9.159-9.158,9.159h-95.801
			c-26.902,0-48.809,21.885-48.809,48.786v665.769c0,26.901,21.906,48.809,48.785,48.809h95.801c5.063,0,9.158,4.074,9.158,9.137
			C2067.357,795.904,2063.262,800,2058.199,800L2058.199,800z"/>
	</g>
</g>
</svg>
