<?xml version="1.0" encoding="utf-8"?>
<!-- Generator: Adobe Illustrator 16.0.0, SVG Export Plug-In . SVG Version: 6.00 Build 0)  -->
<!DOCTYPE svg PUBLIC "-//W3C//DTD SVG 1.1//EN" "http://www.w3.org/Graphics/SVG/1.1/DTD/svg11.dtd">
<svg version="1.1" id="Layer_1" xmlns="http://www.w3.org/2000/svg" xmlns:xlink="http://www.w3.org/1999/xlink" x="0px" y="0px"
	 width="800px" height="800px" viewBox="900.09 0 800 800" enable-background="new 900.09 0 800 800" xml:space="preserve">
<g>
	<path d="M1685.803,85.715h-71.428V42.857c0-7.89-6.396-14.286-14.285-14.286h-85.714c-7.89,0-14.286,6.396-14.286,14.286v42.857
		h-142.856V42.857c0-7.89-6.396-14.286-14.286-14.286h-85.715c-7.89,0-14.286,6.396-14.286,14.286v42.857H1100.09V42.857
		c0-7.89-6.396-14.286-14.286-14.286h-85.713c-7.892,0-14.286,6.396-14.286,14.286v42.857h-71.428
		c-7.891,0-14.287,6.396-14.287,14.285v657.143c0,7.889,6.396,14.286,14.287,14.286h771.426c7.89,0,14.287-6.397,14.287-14.286V100
		C1700.09,92.11,1693.692,85.715,1685.803,85.715z M1528.66,57.143h57.144v85.715h-57.144V57.143z M1271.52,57.143h57.141v85.715
		h-57.141V57.143z M1014.376,57.143h57.144v85.715h-57.144V57.143z M985.805,114.285v42.857c0,7.891,6.395,14.285,14.286,14.285
		h85.713c7.891,0,14.286-6.395,14.286-14.285v-42.857h142.856v42.857c0,7.891,6.396,14.285,14.286,14.285h85.715
		c7.89,0,14.286-6.395,14.286-14.285v-42.857h142.856v42.857c0,7.891,6.396,14.285,14.286,14.285h85.714
		c7.889,0,14.285-6.395,14.285-14.285v-42.857h57.144v114.286H928.661V114.285H985.805z M928.661,742.855V257.143h742.857v485.713
		H928.661z M1511.124,346.198c4.413-27.198-14.061-52.822-41.259-57.233c-5.288-0.857-10.68-0.857-15.967-0.001
		c-29.178,2.126-56.344,15.649-75.628,37.647l-49.555,57.272l-169.265-73.874c-5.386-2.353-11.664-1.164-15.82,2.993l-30.302,30.307
		c-5.578,5.591-5.569,14.646,0.02,20.226c0.357,0.355,0.73,0.692,1.124,1.009l136.19,109.547l-63.045,72.867l-62.919-5.714
		c-4.219-0.354-8.385,1.155-11.397,4.129l-20.201,20.198c-5.58,5.578-5.58,14.624,0,20.202c1.086,1.087,2.34,1.991,3.714,2.678
		l76.562,38.271l38.265,76.563c2.055,4.109,5.958,6.98,10.492,7.715c0.757,0.118,1.521,0.179,2.286,0.181
		c3.788,0,7.422-1.505,10.1-4.183l20.201-20.202c2.997-2.999,4.509-7.17,4.13-11.391l-5.714-62.927l72.868-63.055l109.553,136.2
		c2.544,3.163,6.313,5.093,10.365,5.308c0.252,0.014,0.517,0.021,0.768,0.021c3.789,0.002,7.424-1.505,10.103-4.186l30.299-30.308
		c4.157-4.152,5.349-10.427,3-15.813l-73.887-169.284l56.778-49.131C1495.234,402.916,1508.946,375.584,1511.124,346.198z
		 M1144.788,352.253l12.151-12.159l152.195,66.43l-39.759,45.943L1144.788,352.253z M1459.995,643.143l-12.152,12.166
		l-100.22-124.595l45.943-39.757L1459.995,643.143z M1454.777,400.223l-225.88,195.438c-3.478,3.014-5.295,7.514-4.882,12.096
		l5.775,63.562l-1.45,1.458l-31.543-63.086c-1.384-2.766-3.625-5.007-6.39-6.39l-63.086-31.545l1.45-1.457l63.561,5.783
		c4.582,0.417,9.086-1.4,12.095-4.884l195.844-226.38c14.268-15.829,34.045-25.605,55.285-27.33
		c7.627-1.128,15.383,0.933,21.442,5.698c4.726,6.044,6.75,13.769,5.595,21.353c-1.764,21.447-11.725,41.389-27.816,55.677V400.223z
		"/>
</g>
</svg>
